<?xml version="1.0" encoding="UTF-8"?>
<svg width="86px" height="75px" viewBox="0 0 86 75" version="1.1" xmlns="http://www.w3.org/2000/svg" xmlns:xlink="http://www.w3.org/1999/xlink">
    <!-- Generator: Sketch 46.2 (44496) - http://www.bohemiancoding.com/sketch -->
    <title>lightning-cloud</title>
    <desc>Created with Sketch.</desc>
    <defs>
        <polygon id="path-1" points="0.06 56.735 0.06 0.801 86.443 0.801 86.443 56.735"></polygon>
    </defs>
    <g id="Page-1" stroke="none" stroke-width="1" fill="none" fill-rule="evenodd">
        <g id="lightning-cloud">
            <polyline id="Fill-118" fill="#D98A2F" points="49.183 42.807 34.833 57.143 41.113 62.346 34.214 74.309 49.229 62.762 48.97 62.5 42.949 56.948 49.183 42.807"></polyline>
            <polyline id="Fill-119" fill="#F3B428" points="49.183 42.807 35.091 56.901 35.088 56.891 41.113 61.879 34.617 73.612 48.973 62.506 42.949 56.481 49.183 42.807"></polyline>
            <path d="M36.557,58.107 L35.094,56.897 L35.095,56.897 L36.557,58.107 M35.095,56.897 L35.094,56.896 L39.071,52.919 L39.072,52.919 L35.095,56.897" id="Fill-120" fill="#DF9B2F"></path>
            <path d="M37.762,59.104 L36.557,58.107 L35.095,56.897 L39.072,52.919 C40.032,53.038 41.021,53.1 42.031,53.1 C42.888,53.1 43.728,53.056 44.55,52.97 L42.949,56.481 L45.521,59.053 C44.345,58.934 43.139,58.862 41.9,58.862 C40.48,58.862 39.098,58.948 37.762,59.104 M35.094,56.897 L35.094,56.897 L35.094,56.896 L35.095,56.897 L35.094,56.897" id="Fill-121" fill="#F6C025"></path>
            <polyline id="Fill-122" fill="#F6C025" points="35.091 56.901 35.088 56.891 35.094 56.897 35.091 56.901"></polyline>
            <polyline id="Fill-123" fill="#D98A2F" points="26.288 43.813 14.14 55.95 19.457 60.352 13.616 70.481 26.326 60.706 26.107 60.483 21.011 55.784 26.288 43.813"></polyline>
            <polyline id="Fill-124" fill="#F3B428" points="26.288 43.813 14.358 55.743 14.355 55.735 19.457 59.959 13.958 69.889 26.109 60.489 21.011 55.389 26.288 43.813"></polyline>
            <polyline id="Fill-125" fill="#DF9B2F" points="16.619 57.61 14.361 55.741 14.362 55.74 16.62 57.61 16.619 57.61"></polyline>
            <path d="M16.62,57.61 L14.362,55.74 L21.239,48.862 C22.077,49.06 22.95,49.165 23.847,49.167 L21.011,55.389 L23.187,57.567 C22.192,57.463 21.171,57.405 20.123,57.405 C18.921,57.405 17.75,57.477 16.62,57.61" id="Fill-126" fill="#F6C025"></path>
            <polyline id="Fill-127" fill="#DF9B2F" points="14.358 55.743 14.355 55.735 14.358 55.743 14.361 55.74 14.361 55.741 14.358 55.743"></polyline>
            <polyline id="Fill-128" fill="#F6C025" points="14.358 55.743 14.355 55.735 14.361 55.74 14.358 55.743"></polyline>
            <polyline id="Fill-129" fill="#D98A2F" points="69.788 43.813 57.64 55.95 62.957 60.352 57.116 70.481 69.826 60.706 69.607 60.483 64.511 55.784 69.788 43.813"></polyline>
            <polyline id="Fill-130" fill="#F3B428" points="69.788 43.813 57.858 55.743 57.855 55.735 62.957 59.959 57.458 69.889 69.609 60.489 64.511 55.389 69.788 43.813"></polyline>
            <polyline id="Fill-131" fill="#DF9B2F" points="60.119 57.61 57.861 55.741 57.862 55.74 60.12 57.61 60.119 57.61"></polyline>
            <path d="M60.12,57.61 L57.862,55.74 L66.51,47.091 C67.2,46.99 67.87,46.827 68.514,46.609 L64.511,55.389 L66.688,57.567 C65.692,57.463 64.671,57.405 63.623,57.405 C62.421,57.405 61.25,57.477 60.12,57.61" id="Fill-132" fill="#F6C025"></path>
            <polyline id="Fill-133" fill="#DF9B2F" points="57.858 55.743 57.855 55.735 57.858 55.743 57.861 55.74 57.861 55.741 57.858 55.743"></polyline>
            <g id="Group-140">
                <mask id="mask-2" fill="white">
                    <use xlink:href="#path-1"></use>
                </mask>
                <g id="Clip-135"></g>
                <polyline id="Fill-134" fill="#F6C025" mask="url(#mask-2)" points="57.858 55.743 57.855 55.735 57.861 55.74 57.858 55.743"></polyline>
                <path d="M70.111,17.864 C69.093,17.864 68.103,17.938 67.139,18.079 C65.185,14.034 60.736,11.204 55.554,11.204 C54.978,11.204 54.414,11.252 53.858,11.319 C53.021,5.813 48.277,1.586 42.538,1.586 C37.092,1.586 32.542,5.385 31.371,10.477 C30.446,10.235 29.48,10.094 28.48,10.094 C22.526,10.094 17.635,14.633 17.071,20.438 C15.412,19.508 13.504,18.971 11.466,18.971 C5.133,18.971 0,24.106 0,30.438 C0,36.77 5.133,41.905 11.466,41.905 C12.043,41.905 12.605,41.848 13.161,41.764 C14.802,46.09 18.972,49.167 23.871,49.167 C25.486,49.167 27.021,48.829 28.415,48.227 C31.428,51.174 36.401,53.1 42.031,53.1 C49.562,53.1 55.923,49.655 57.976,44.926 C59.89,46.356 62.258,47.213 64.831,47.213 C69.629,47.213 73.735,44.264 75.442,40.081 C81.281,38.461 85.443,34.258 85.443,29.327 C85.443,22.997 78.579,17.864 70.111,17.864" id="Fill-136" fill="#203F4E" mask="url(#mask-2)"></path>
                <path d="M70.111,17.075 C69.093,17.075 68.103,17.151 67.139,17.293 C65.185,13.247 60.736,10.418 55.554,10.418 C54.978,10.418 54.414,10.463 53.858,10.532 C53.021,5.026 48.277,0.801 42.538,0.801 C37.092,0.801 32.542,4.6 31.371,9.69 C30.446,9.45 29.48,9.309 28.48,9.309 C22.526,9.309 17.635,13.848 17.071,19.655 C15.412,18.723 13.504,18.186 11.466,18.186 C5.133,18.186 0,23.319 0,29.653 C0,35.983 5.133,41.118 11.466,41.118 C12.043,41.118 12.605,41.063 13.161,40.979 C14.802,45.301 18.972,48.381 23.871,48.381 C25.486,48.381 27.021,48.043 28.415,47.442 C31.428,50.387 36.401,52.317 42.031,52.317 C49.562,52.317 55.923,48.87 57.976,44.139 C59.89,45.571 62.258,46.43 64.831,46.43 C69.629,46.43 73.735,43.479 75.442,39.295 C81.281,37.672 85.443,33.471 85.443,28.541 C85.443,22.21 78.579,17.075 70.111,17.075" id="Fill-137" fill="#2D637E" mask="url(#mask-2)"></path>
                <path d="M85.443,28.611 C85.443,28.61 85.443,28.609 85.443,28.607 C85.443,28.609 85.443,28.61 85.443,28.611 M85.443,28.591 C85.443,28.587 85.443,28.582 85.443,28.578 C85.443,28.582 85.443,28.587 85.443,28.591 M85.443,28.567 C85.443,28.559 85.443,28.55 85.443,28.541 C85.443,28.55 85.443,28.559 85.443,28.567" id="Fill-138" fill="#EDEEEB" mask="url(#mask-2)"></path>
                <path d="M0.147,31.405 C0.06,30.833 0,30.249 0,29.653 C0,23.319 5.133,18.186 11.466,18.186 C13.504,18.186 15.412,18.723 17.071,19.655 C17.635,13.848 22.526,9.309 28.48,9.309 C29.48,9.309 30.446,9.45 31.371,9.69 C32.542,4.6 37.092,0.801 42.538,0.801 C48.277,0.801 53.021,5.026 53.858,10.532 C54.414,10.463 54.978,10.418 55.554,10.418 C60.736,10.418 65.185,13.247 67.139,17.293 C68.103,17.151 69.093,17.075 70.111,17.075 C78.579,17.075 85.443,22.21 85.443,28.541 C85.443,28.55 85.443,28.559 85.443,28.567 C85.443,28.571 85.443,28.574 85.443,28.578 C85.443,28.582 85.443,28.587 85.443,28.591 C85.443,28.597 85.443,28.602 85.443,28.607 C85.443,28.609 85.443,28.61 85.443,28.611 C85.435,29.548 85.273,30.458 84.984,31.325 C73.25,28.284 58.607,26.479 42.722,26.479 C26.694,26.479 11.932,28.317 0.147,31.405" id="Fill-139" fill="#3B7087" mask="url(#mask-2)"></path>
            </g>
        </g>
    </g>
</svg>