<?xml version="1.0" encoding="UTF-8"?>
<svg width="86px" height="75px" viewBox="0 0 86 75" version="1.1" xmlns="http://www.w3.org/2000/svg" xmlns:xlink="http://www.w3.org/1999/xlink">
    <!-- Generator: Sketch 46.2 (44496) - http://www.bohemiancoding.com/sketch -->
    <title>rainy-cloud</title>
    <desc>Created with Sketch.</desc>
    <defs></defs>
    <g id="Page-1" stroke="none" stroke-width="1" fill="none" fill-rule="evenodd">
        <g id="rainy-cloud">
            <path d="M70.111,17.827 C69.093,17.827 68.103,17.902 67.139,18.043 C65.185,13.997 60.736,11.168 55.554,11.168 C54.978,11.168 54.414,11.216 53.858,11.283 C53.021,5.776 48.277,1.551 42.538,1.551 C37.092,1.551 32.542,5.35 31.371,10.441 C30.446,10.2 29.48,10.059 28.48,10.059 C22.526,10.059 17.635,14.598 17.071,20.403 C15.412,19.474 13.504,18.936 11.466,18.936 C5.133,18.936 0,24.07 0,30.402 C0,36.734 5.133,41.869 11.466,41.869 C12.043,41.869 12.605,41.813 13.161,41.729 C14.802,46.054 18.972,49.132 23.871,49.132 C25.486,49.132 27.021,48.794 28.415,48.192 C31.428,51.139 36.401,53.065 42.031,53.065 C49.562,53.065 55.923,49.62 57.976,44.89 C59.89,46.321 62.258,47.179 64.831,47.179 C69.629,47.179 73.735,44.229 75.442,40.046 C81.281,38.425 85.443,34.224 85.443,29.292 C85.443,22.96 78.579,17.827 70.111,17.827" id="Fill-77" fill="#203F4E"></path>
            <path d="M70.111,17.04 C69.093,17.04 68.103,17.116 67.139,17.257 C65.185,13.211 60.736,10.382 55.554,10.382 C54.978,10.382 54.414,10.429 53.858,10.497 C53.021,4.99 48.277,0.766 42.538,0.766 C37.092,0.766 32.542,4.563 31.371,9.655 C30.446,9.414 29.48,9.273 28.48,9.273 C22.526,9.273 17.635,13.813 17.071,19.619 C15.412,18.687 13.504,18.15 11.466,18.15 C5.133,18.15 0,23.283 0,29.617 C0,35.948 5.133,41.083 11.466,41.083 C12.043,41.083 12.605,41.026 13.161,40.944 C14.802,45.266 18.972,48.346 23.871,48.346 C25.486,48.346 27.021,48.008 28.415,47.406 C31.428,50.353 36.401,52.282 42.031,52.282 C49.562,52.282 55.923,48.834 57.976,44.104 C59.89,45.535 62.258,46.394 64.831,46.394 C69.629,46.394 73.735,43.443 75.442,39.26 C81.281,37.637 85.443,33.435 85.443,28.506 C85.443,22.174 78.579,17.04 70.111,17.04" id="Fill-78" fill="#2D637E"></path>
            <path d="M85.443,28.575 C85.443,28.574 85.443,28.573 85.443,28.572 C85.443,28.573 85.443,28.574 85.443,28.575 M85.443,28.556 C85.443,28.551 85.443,28.547 85.443,28.542 C85.443,28.547 85.443,28.551 85.443,28.556 M85.443,28.531 C85.443,28.523 85.443,28.514 85.443,28.506 C85.443,28.514 85.443,28.523 85.443,28.531" id="Fill-79" fill="#EDEEEB"></path>
            <path d="M0.147,31.37 C0.06,30.796 0,30.213 0,29.617 C0,23.283 5.133,18.15 11.466,18.15 C13.504,18.15 15.412,18.687 17.071,19.619 C17.635,13.813 22.526,9.273 28.48,9.273 C29.48,9.273 30.446,9.414 31.371,9.655 C32.542,4.563 37.092,0.766 42.538,0.766 C48.277,0.766 53.021,4.99 53.858,10.497 C54.414,10.429 54.978,10.382 55.554,10.382 C60.736,10.382 65.185,13.211 67.139,17.257 C68.103,17.116 69.093,17.04 70.111,17.04 C78.579,17.04 85.443,22.174 85.443,28.506 C85.443,28.514 85.443,28.523 85.443,28.531 C85.443,28.535 85.443,28.539 85.443,28.542 C85.443,28.547 85.443,28.551 85.443,28.556 C85.443,28.561 85.443,28.567 85.443,28.572 C85.443,28.573 85.443,28.574 85.443,28.575 C85.435,29.511 85.273,30.421 84.984,31.29 C73.25,28.249 58.607,26.443 42.722,26.443 C26.694,26.443 11.932,28.281 0.147,31.37" id="Fill-80" fill="#3B7087"></path>
            <path d="M24.727,65.526 C23.784,68.563 20.902,70.368 18.289,69.557 C15.677,68.747 14.322,65.627 15.265,62.591 C16.206,59.555 22.911,54.659 22.911,54.659 C22.911,54.659 25.668,62.49 24.727,65.526" id="Fill-82" fill="#2173AC"></path>
            <path d="M24.838,65.168 C23.895,68.205 21.014,70.01 18.4,69.199 C15.787,68.389 14.434,65.269 15.375,62.232 C16.317,59.197 23.022,54.301 23.022,54.301 C23.022,54.301 25.779,62.132 24.838,65.168" id="Fill-83" fill="#4A8FC0"></path>
            <path d="M23.022,54.302 C23.022,54.302 23.022,54.302 23.022,54.301 C23.022,54.302 23.022,54.302 23.022,54.302" id="Fill-84" fill="#E5E7E3"></path>
            <path d="M24.991,64.313 C23.641,63.606 22.127,62.975 20.49,62.467 C18.852,61.959 17.246,61.623 15.732,61.441 C17.379,58.443 22.922,54.375 23.021,54.302 C23.021,54.302 23.022,54.302 23.022,54.302 C23.022,54.302 23.022,54.302 23.022,54.301 C23.034,54.333 25.333,60.888 24.991,64.313" id="Fill-85" fill="#4E9BC8"></path>
            <path d="M65.104,65.526 C64.161,68.563 61.279,70.368 58.666,69.557 C56.054,68.747 54.699,65.627 55.642,62.591 C56.583,59.555 63.288,54.659 63.288,54.659 C63.288,54.659 66.045,62.49 65.104,65.526" id="Fill-86" fill="#2173AC"></path>
            <path d="M65.215,65.168 C64.272,68.205 61.391,70.01 58.777,69.199 C56.164,68.389 54.811,65.269 55.752,62.232 C56.694,59.197 63.399,54.301 63.399,54.301 C63.399,54.301 66.156,62.132 65.215,65.168" id="Fill-87" fill="#4A8FC0"></path>
            <path d="M63.399,54.302 C63.399,54.302 63.399,54.302 63.399,54.301 C63.399,54.302 63.399,54.302 63.399,54.302" id="Fill-88" fill="#E5E7E3"></path>
            <path d="M65.368,64.313 C64.018,63.606 62.504,62.975 60.867,62.467 C59.229,61.959 57.623,61.623 56.109,61.441 C57.756,58.443 63.299,54.375 63.398,54.302 C63.398,54.302 63.399,54.302 63.399,54.302 C63.399,54.302 63.399,54.302 63.399,54.301 C63.411,54.333 65.71,60.888 65.368,64.313" id="Fill-89" fill="#4E9BC8"></path>
            <path d="M45.849,68.977 C44.721,72.613 41.27,74.775 38.14,73.804 C35.011,72.833 33.389,69.097 34.518,65.461 C35.646,61.825 43.676,55.962 43.676,55.962 C43.676,55.962 46.978,65.34 45.849,68.977" id="Fill-90" fill="#2173AC"></path>
            <path d="M45.982,68.548 C44.854,72.184 41.402,74.346 38.273,73.375 C35.144,72.404 33.522,68.668 34.65,65.032 C35.778,61.396 43.809,55.533 43.809,55.533 C43.809,55.533 47.11,64.912 45.982,68.548" id="Fill-91" fill="#4A8FC0"></path>
            <path d="M43.809,55.534 C43.809,55.533 43.809,55.533 43.809,55.533 C43.809,55.533 43.809,55.533 43.809,55.534 M43.808,55.533 L43.809,55.533" id="Fill-92" fill="#E5E7E3"></path>
            <path d="M46.167,67.524 C44.549,66.677 42.735,65.92 40.775,65.312 C38.814,64.704 36.891,64.302 35.077,64.084 C37.061,60.472 43.768,55.563 43.808,55.533 L43.809,55.533 C43.809,55.533 43.809,55.533 43.809,55.534 C43.831,55.598 46.575,63.429 46.167,67.524" id="Fill-93" fill="#4E9BC8"></path>
        </g>
    </g>
</svg>