<?xml version="1.0" encoding="UTF-8"?>
<svg width="76px" height="50px" viewBox="0 0 76 50" version="1.1" xmlns="http://www.w3.org/2000/svg" xmlns:xlink="http://www.w3.org/1999/xlink">
    <!-- Generator: Sketch 46.2 (44496) - http://www.bohemiancoding.com/sketch -->
    <title>still-cloud</title>
    <desc>Created with Sketch.</desc>
    <defs></defs>
    <g id="Page-1" stroke="none" stroke-width="1" fill="none" fill-rule="evenodd">
        <g id="still-cloud">
            <path d="M62.154,16.624 C61.256,16.624 60.38,16.695 59.529,16.827 C57.805,13.013 53.875,10.347 49.297,10.347 C48.79,10.347 48.292,10.39 47.801,10.455 C47.062,5.263 42.873,1.281 37.802,1.281 C32.993,1.281 28.975,4.861 27.941,9.661 C27.125,9.433 26.272,9.299 25.389,9.299 C20.13,9.299 15.809,13.581 15.312,19.053 C13.847,18.176 12.161,17.668 10.362,17.668 C4.767,17.668 0.234,22.51 0.234,28.481 C0.234,34.449 4.767,39.29 10.362,39.29 C10.871,39.29 11.368,39.236 11.857,39.158 C13.308,43.235 16.991,46.138 21.318,46.138 C22.743,46.138 24.1,45.819 25.332,45.251 C27.991,48.03 32.384,49.847 37.357,49.847 C44.008,49.847 49.625,46.598 51.438,42.138 C53.128,43.487 55.218,44.298 57.492,44.298 C61.73,44.298 65.356,41.514 66.864,37.571 C72.021,36.044 75.697,32.081 75.697,27.433 C75.697,21.463 69.632,16.624 62.154,16.624" id="Fill-64" fill="#9FB3C6"></path>
            <path d="M62.154,15.882 C61.256,15.882 60.38,15.954 59.529,16.086 C57.805,12.272 53.875,9.605 49.297,9.605 C48.79,9.605 48.292,9.649 47.801,9.714 C47.062,4.521 42.873,0.539 37.802,0.539 C32.993,0.539 28.975,4.121 27.941,8.919 C27.125,8.694 26.272,8.559 25.389,8.559 C20.13,8.559 15.809,12.839 15.312,18.312 C13.847,17.434 12.161,16.929 10.362,16.929 C4.767,16.929 0.234,21.767 0.234,27.737 C0.234,33.709 4.767,38.549 10.362,38.549 C10.871,38.549 11.368,38.495 11.857,38.418 C13.308,42.494 16.991,45.397 21.318,45.397 C22.743,45.397 24.1,45.079 25.332,44.509 C27.991,47.289 32.384,49.105 37.357,49.105 C44.008,49.105 49.625,45.855 51.438,41.397 C53.128,42.747 55.218,43.555 57.492,43.555 C61.73,43.555 65.356,40.775 66.864,36.83 C72.021,35.302 75.697,31.34 75.697,26.692 C75.697,20.721 69.632,15.882 62.154,15.882" id="Fill-65" fill="#BAD3E4"></path>
            <path d="M0.366,29.393 C0.288,28.852 0.234,28.302 0.234,27.737 C0.234,21.767 4.767,16.929 10.362,16.929 C12.161,16.929 13.847,17.434 15.312,18.312 C15.809,12.839 20.13,8.559 25.389,8.559 C26.272,8.559 27.125,8.694 27.941,8.919 C28.975,4.121 32.993,0.539 37.802,0.539 C42.873,0.539 47.062,4.521 47.801,9.714 C48.292,9.649 48.79,9.605 49.297,9.605 C53.875,9.605 57.805,12.272 59.529,16.086 C60.38,15.954 61.256,15.882 62.154,15.882 C69.632,15.882 75.697,20.721 75.697,26.692 C75.697,26.7 75.697,26.709 75.697,26.716 C75.697,26.72 75.697,26.724 75.697,26.727 C75.697,26.731 75.697,26.735 75.697,26.739 C75.697,26.744 75.697,26.75 75.697,26.755 C75.697,26.756 75.697,26.756 75.697,26.757 C75.69,27.638 75.547,28.496 75.293,29.316 C64.927,26.449 51.995,24.746 37.966,24.746 C23.812,24.746 10.773,26.479 0.366,29.393" id="Fill-67" fill="#C3DBE8"></path>
        </g>
    </g>
</svg>